<?xml version="1.0" standalone="no"?>
<!DOCTYPE svg PUBLIC "-//W3C//DTD SVG 20010904//EN"
 "http://www.w3.org/TR/2001/REC-SVG-20010904/DTD/svg10.dtd">
<svg version="1.0" xmlns="http://www.w3.org/2000/svg"
 width="56.000000pt" height="58.000000pt" viewBox="0 0 56.000000 58.000000"
 preserveAspectRatio="xMidYMid meet">
<metadata>
Created by potrace 1.11, written by Peter Selinger 2001-2013
</metadata>
<g transform="translate(0.000000,58.000000) scale(0.100000,-0.100000)"
fill="#000000" stroke="none">
<path d="M316 564 c-9 -9 -16 -32 -16 -55 0 -47 -9 -66 -62 -136 -39 -50 -43
-53 -87 -53 -25 0 -70 -3 -98 -6 l-53 -7 0 -113 0 -114 93 0 c87 0 96 -2 133
-30 73 -53 214 -61 231 -13 3 10 14 26 25 36 10 10 18 26 18 36 0 10 7 24 15
31 8 7 15 20 15 30 0 9 7 31 15 47 23 47 7 79 -47 94 -99 26 -101 28 -94 73 3
23 9 55 12 72 8 41 -19 97 -52 113 -31 14 -30 14 -48 -5z m48 -30 c24 -23 30
-61 17 -104 -25 -85 -4 -124 73 -135 24 -4 53 -16 62 -26 16 -18 16 -20 -1
-39 -9 -10 -15 -26 -11 -35 3 -9 -3 -24 -14 -35 -11 -11 -20 -31 -20 -44 0
-16 -7 -27 -20 -31 -11 -3 -20 -15 -20 -25 0 -26 -25 -31 -92 -20 -61 9 -88
20 -107 43 -6 8 -27 18 -46 21 -42 8 -52 37 -47 134 2 28 8 35 45 51 29 13 56
36 85 75 50 66 62 94 62 147 0 42 9 48 34 23z"/>
</g>
</svg>
