<?xml version="1.0" standalone="no"?>
<!DOCTYPE svg PUBLIC "-//W3C//DTD SVG 20010904//EN"
 "http://www.w3.org/TR/2001/REC-SVG-20010904/DTD/svg10.dtd">
<svg version="1.0" xmlns="http://www.w3.org/2000/svg"
 width="65.000000pt" height="50.000000pt" viewBox="0 0 65.000000 50.000000"
 preserveAspectRatio="xMidYMid meet">
<metadata>
Created by potrace 1.11, written by Peter Selinger 2001-2013
</metadata>
<g transform="translate(0.000000,50.000000) scale(0.100000,-0.100000)"
fill="#000000" stroke="none">
<path d="M204 492 c-6 -4 -16 -23 -23 -44 -14 -42 -25 -48 -90 -48 -83 0 -86
-5 -89 -189 -3 -160 -3 -161 22 -186 l25 -25 276 0 276 0 25 25 c25 25 25 26
22 186 -3 184 -6 189 -89 189 -65 0 -76 6 -90 48 -7 21 -17 40 -23 44 -14 10
-228 10 -242 0z m192 -131 c61 -28 89 -73 89 -143 0 -61 -17 -94 -69 -132 -39
-30 -143 -30 -182 0 -52 38 -69 71 -69 132 0 70 28 115 89 143 52 23 90 23
142 0z m184 -26 c15 -18 5 -35 -21 -35 -12 0 -19 7 -19 18 0 33 20 42 40 17z"/>
<path d="M277 294 c-53 -29 -61 -91 -18 -135 41 -40 91 -40 132 0 44 44 35
107 -20 136 -37 19 -58 19 -94 -1z"/>
</g>
</svg>
