<?xml version="1.0" standalone="no"?>
<!DOCTYPE svg PUBLIC "-//W3C//DTD SVG 20010904//EN"
 "http://www.w3.org/TR/2001/REC-SVG-20010904/DTD/svg10.dtd">
<svg version="1.0" xmlns="http://www.w3.org/2000/svg"
 width="72.000000pt" height="34.000000pt" viewBox="0 0 72.000000 34.000000"
 preserveAspectRatio="xMidYMid meet">
<metadata>
Created by potrace 1.11, written by Peter Selinger 2001-2013
</metadata>
<g transform="translate(0.000000,34.000000) scale(0.100000,-0.100000)"
fill="#000000" stroke="none">
<path d="M272 301 c51 -44 74 -108 61 -167 l-10 -44 37 0 37 0 -10 44 c-13 59
10 123 61 167 l37 32 -35 -8 c-19 -5 -60 -9 -90 -9 -30 0 -71 4 -90 9 l-35 8
37 -32z"/>
<path d="M92 303 c-127 -62 -109 -256 26 -293 140 -37 249 139 155 251 -48 57
-118 73 -181 42z m103 -47 c35 -15 65 -59 65 -96 0 -29 -27 -77 -49 -90 -11
-5 -37 -10 -58 -10 -45 0 -86 35 -97 83 -9 39 20 96 58 113 39 17 40 17 81 0z"/>
<path d="M105 215 c-16 -15 -25 -35 -24 -52 l1 -28 8 28 c11 35 28 57 55 67
17 8 18 9 2 9 -10 1 -29 -10 -42 -24z"/>
<path d="M505 306 c-71 -31 -108 -113 -85 -189 33 -113 167 -148 249 -66 119
119 -12 321 -164 255z m99 -50 c40 -17 70 -72 60 -113 -11 -48 -52 -83 -97
-83 -21 0 -47 5 -58 10 -22 13 -49 61 -49 90 0 36 30 81 63 95 40 18 41 18 81
1z"/>
<path d="M575 230 c27 -10 44 -32 55 -67 l8 -28 1 28 c1 32 -38 77 -66 76 -16
0 -15 -1 2 -9z"/>
</g>
</svg>
